<svg xmlns="http://www.w3.org/2000/svg" viewBox="0 0 180 180" role="img" aria-label="LusoSpin">
  <defs>
    <linearGradient id="apple-coral" x1="0%" y1="0%" x2="100%" y2="100%">
      <stop offset="0%" stop-color="#f2845b"/>
      <stop offset="100%" stop-color="#f5a882"/>
    </linearGradient>
    <linearGradient id="apple-mint" x1="0%" y1="100%" x2="100%" y2="0%">
      <stop offset="0%" stop-color="#5ec4a8"/>
      <stop offset="100%" stop-color="#7dd9c0"/>
    </linearGradient>
  </defs>
  <rect width="180" height="180" rx="42" fill="#0f0a14"/>
  <circle cx="90" cy="90" r="68" fill="#1e1529" stroke="url(#apple-coral)" stroke-width="4"/>
  <path d="M90 34 A56 56 0 0 1 146 90 L90 90 Z" fill="url(#apple-coral)"/>
  <path d="M146 90 A56 56 0 0 1 90 146 L90 90 Z" fill="#2a1f3a"/>
  <path d="M90 146 A56 56 0 0 1 34 90 L90 90 Z" fill="url(#apple-mint)" opacity="0.9"/>
  <path d="M34 90 A56 56 0 0 1 90 34 L90 90 Z" fill="#3d2f52"/>
  <circle cx="90" cy="90" r="20" fill="#0f0a14" stroke="url(#apple-coral)" stroke-width="3"/>
</svg>
