<svg xmlns="http://www.w3.org/2000/svg" viewBox="0 0 32 32" role="img" aria-label="LusoSpin">
  <defs>
    <linearGradient id="fav-coral" x1="0%" y1="0%" x2="100%" y2="100%">
      <stop offset="0%" stop-color="#f2845b"/>
      <stop offset="100%" stop-color="#f5a882"/>
    </linearGradient>
    <linearGradient id="fav-mint" x1="0%" y1="100%" x2="100%" y2="0%">
      <stop offset="0%" stop-color="#5ec4a8"/>
      <stop offset="100%" stop-color="#7dd9c0"/>
    </linearGradient>
  </defs>
  <rect width="32" height="32" rx="9" fill="#0f0a14"/>
  <circle cx="16" cy="16" r="12" fill="#1e1529" stroke="url(#fav-coral)" stroke-width="1.5"/>
  <path d="M16 6 A10 10 0 0 1 26 16 L16 16 Z" fill="url(#fav-coral)"/>
  <path d="M26 16 A10 10 0 0 1 16 26 L16 16 Z" fill="#2a1f3a"/>
  <path d="M16 26 A10 10 0 0 1 6 16 L16 16 Z" fill="url(#fav-mint)" opacity="0.9"/>
  <path d="M6 16 A10 10 0 0 1 16 6 L16 16 Z" fill="#3d2f52"/>
  <circle cx="16" cy="16" r="3.5" fill="#0f0a14" stroke="url(#fav-coral)" stroke-width="1"/>
</svg>
